<mxfile host="65bd71144e" modified="2021-10-21T04:42:50.159Z" agent="5.0 (Windows NT 10.0; Win64; x64) AppleWebKit/537.36 (KHTML, like Gecko) Code/1.61.2 Chrome/91.0.4472.164 Electron/13.5.1 Safari/537.36" etag="70VFljRzhSw8Y-NoHg_x" version="15.5.7" type="embed" pages="2">
    <diagram id="CvgPCsXY9eOnfGZYOeE3" name="人事管理_ユースケース図">
        <mxGraphModel dx="776" dy="419" grid="1" gridSize="10" guides="1" tooltips="1" connect="1" arrows="1" fold="1" page="1" pageScale="1" pageWidth="827" pageHeight="1169" math="0" shadow="0">
            <root>
                <mxCell id="RNgX-jbUkB-9QtbaT86_-0"/>
                <mxCell id="RNgX-jbUkB-9QtbaT86_-1" parent="RNgX-jbUkB-9QtbaT86_-0"/>
                <mxCell id="bhvNu0Lqs81DkffSNlAM-0" value="" style="rounded=0;whiteSpace=wrap;html=1;strokeColor=#36393d;fillColor=#f9f7ed;fontColor=#080808;" parent="RNgX-jbUkB-9QtbaT86_-1" vertex="1">
                    <mxGeometry x="268" y="320" width="400" height="240" as="geometry"/>
                </mxCell>
                <mxCell id="bhvNu0Lqs81DkffSNlAM-1" value="正規社員" style="shape=umlActor;verticalLabelPosition=bottom;verticalAlign=top;html=1;outlineConnect=0;strokeColor=#36393d;fillColor=#f9f7ed;fontColor=#080808;" parent="RNgX-jbUkB-9QtbaT86_-1" vertex="1">
                    <mxGeometry x="797" y="550" width="30" height="60" as="geometry"/>
                </mxCell>
                <mxCell id="bhvNu0Lqs81DkffSNlAM-2" value="" style="rounded=0;whiteSpace=wrap;html=1;strokeColor=#36393d;fillColor=#f9f7ed;fontColor=#080808;" parent="RNgX-jbUkB-9QtbaT86_-1" vertex="1">
                    <mxGeometry x="270" y="570" width="400" height="340" as="geometry"/>
                </mxCell>
                <mxCell id="bhvNu0Lqs81DkffSNlAM-3" value="" style="rounded=1;whiteSpace=wrap;html=1;arcSize=4;strokeColor=#36393d;fillColor=#DEDCD3;fontColor=#080808;" parent="RNgX-jbUkB-9QtbaT86_-1" vertex="1">
                    <mxGeometry x="292" y="600" width="356" height="200" as="geometry"/>
                </mxCell>
                <mxCell id="bhvNu0Lqs81DkffSNlAM-4" value="管理者" style="shape=umlActor;verticalLabelPosition=bottom;verticalAlign=top;html=1;outlineConnect=0;strokeColor=#36393d;fillColor=#f9f7ed;fontColor=#080808;" parent="RNgX-jbUkB-9QtbaT86_-1" vertex="1">
                    <mxGeometry x="170" y="372.5" width="40" height="70" as="geometry"/>
                </mxCell>
                <mxCell id="bhvNu0Lqs81DkffSNlAM-5" value="従業員情報参照" style="ellipse;whiteSpace=wrap;html=1;strokeColor=#36393d;fillColor=#f9f7ed;fontColor=#080808;" parent="RNgX-jbUkB-9QtbaT86_-1" vertex="1">
                    <mxGeometry x="402" y="640" width="140" height="35" as="geometry"/>
                </mxCell>
                <mxCell id="bhvNu0Lqs81DkffSNlAM-6" value="非正規社員" style="shape=umlActor;verticalLabelPosition=bottom;verticalAlign=top;html=1;outlineConnect=0;strokeColor=#36393d;fillColor=#f9f7ed;fontColor=#080808;" parent="RNgX-jbUkB-9QtbaT86_-1" vertex="1">
                    <mxGeometry x="180" y="630" width="20" height="50" as="geometry"/>
                </mxCell>
                <mxCell id="bhvNu0Lqs81DkffSNlAM-7" value="店舗情報参照" style="ellipse;whiteSpace=wrap;html=1;strokeColor=#36393d;fillColor=#f9f7ed;fontColor=#080808;" parent="RNgX-jbUkB-9QtbaT86_-1" vertex="1">
                    <mxGeometry x="402" y="690" width="140" height="35" as="geometry"/>
                </mxCell>
                <mxCell id="bhvNu0Lqs81DkffSNlAM-8" value="" style="rounded=1;whiteSpace=wrap;html=1;arcSize=4;strokeColor=#36393d;fillColor=#DEDCD3;fontColor=#080808;" parent="RNgX-jbUkB-9QtbaT86_-1" vertex="1">
                    <mxGeometry x="292" y="350" width="356" height="200" as="geometry"/>
                </mxCell>
                <mxCell id="bhvNu0Lqs81DkffSNlAM-9" value="人事情報管理" style="text;html=1;strokeColor=none;fillColor=#f9f7ed;align=center;verticalAlign=middle;whiteSpace=wrap;rounded=0;fontColor=#080808;" parent="RNgX-jbUkB-9QtbaT86_-1" vertex="1">
                    <mxGeometry x="276" y="575" width="80" height="20" as="geometry"/>
                </mxCell>
                <mxCell id="bhvNu0Lqs81DkffSNlAM-10" value="マスタ管理" style="text;html=1;strokeColor=none;fillColor=none;align=center;verticalAlign=middle;whiteSpace=wrap;rounded=0;fontColor=#080808;" parent="RNgX-jbUkB-9QtbaT86_-1" vertex="1">
                    <mxGeometry x="268" y="320" width="66" height="30" as="geometry"/>
                </mxCell>
                <mxCell id="bhvNu0Lqs81DkffSNlAM-11" value="人事情報参照" style="text;html=1;strokeColor=none;fillColor=none;align=center;verticalAlign=middle;whiteSpace=wrap;rounded=0;fontColor=#080808;" parent="RNgX-jbUkB-9QtbaT86_-1" vertex="1">
                    <mxGeometry x="300" y="610" width="74" height="20" as="geometry"/>
                </mxCell>
                <mxCell id="bhvNu0Lqs81DkffSNlAM-12" value="従業員情報管理" style="ellipse;whiteSpace=wrap;html=1;strokeColor=#36393d;fillColor=#f9f7ed;fontColor=#080808;" parent="RNgX-jbUkB-9QtbaT86_-1" vertex="1">
                    <mxGeometry x="368" y="390" width="200" height="35" as="geometry"/>
                </mxCell>
                <mxCell id="bhvNu0Lqs81DkffSNlAM-13" value="店舗情報管理" style="ellipse;whiteSpace=wrap;html=1;strokeColor=#36393d;fillColor=#f9f7ed;fontColor=#080808;" parent="RNgX-jbUkB-9QtbaT86_-1" vertex="1">
                    <mxGeometry x="370" y="437.5" width="200" height="35" as="geometry"/>
                </mxCell>
                <mxCell id="bhvNu0Lqs81DkffSNlAM-14" value="正規非正規ユーザの権限を編集" style="ellipse;whiteSpace=wrap;html=1;strokeColor=#36393d;fillColor=#f9f7ed;fontColor=#080808;" parent="RNgX-jbUkB-9QtbaT86_-1" vertex="1">
                    <mxGeometry x="368" y="490" width="200" height="35" as="geometry"/>
                </mxCell>
                <mxCell id="bhvNu0Lqs81DkffSNlAM-15" value="" style="endArrow=classic;html=1;rounded=0;exitX=0.5;exitY=0.5;exitDx=0;exitDy=0;exitPerimeter=0;entryX=0;entryY=0.5;entryDx=0;entryDy=0;strokeColor=#36393d;fillColor=#f9f7ed;fontColor=#080808;" parent="RNgX-jbUkB-9QtbaT86_-1" source="bhvNu0Lqs81DkffSNlAM-6" target="bhvNu0Lqs81DkffSNlAM-5" edge="1">
                    <mxGeometry width="50" height="50" relative="1" as="geometry">
                        <mxPoint x="340" y="660" as="sourcePoint"/>
                        <mxPoint x="390" y="610" as="targetPoint"/>
                    </mxGeometry>
                </mxCell>
                <mxCell id="bhvNu0Lqs81DkffSNlAM-16" value="" style="endArrow=classic;html=1;rounded=0;exitX=0.5;exitY=0.5;exitDx=0;exitDy=0;exitPerimeter=0;entryX=0;entryY=0.5;entryDx=0;entryDy=0;strokeColor=#36393d;fillColor=#f9f7ed;fontColor=#080808;" parent="RNgX-jbUkB-9QtbaT86_-1" source="bhvNu0Lqs81DkffSNlAM-6" target="bhvNu0Lqs81DkffSNlAM-7" edge="1">
                    <mxGeometry width="50" height="50" relative="1" as="geometry">
                        <mxPoint x="340" y="660" as="sourcePoint"/>
                        <mxPoint x="390" y="610" as="targetPoint"/>
                    </mxGeometry>
                </mxCell>
                <mxCell id="bhvNu0Lqs81DkffSNlAM-17" value="" style="endArrow=classic;html=1;rounded=0;exitX=0.5;exitY=0.5;exitDx=0;exitDy=0;exitPerimeter=0;entryX=1;entryY=0.5;entryDx=0;entryDy=0;strokeColor=#36393d;fillColor=#f9f7ed;fontColor=#080808;" parent="RNgX-jbUkB-9QtbaT86_-1" source="bhvNu0Lqs81DkffSNlAM-1" target="bhvNu0Lqs81DkffSNlAM-5" edge="1">
                    <mxGeometry width="50" height="50" relative="1" as="geometry">
                        <mxPoint x="340" y="660" as="sourcePoint"/>
                        <mxPoint x="390" y="610" as="targetPoint"/>
                    </mxGeometry>
                </mxCell>
                <mxCell id="bhvNu0Lqs81DkffSNlAM-18" value="" style="endArrow=classic;html=1;rounded=0;entryX=1;entryY=0.5;entryDx=0;entryDy=0;exitX=0.5;exitY=0.5;exitDx=0;exitDy=0;exitPerimeter=0;strokeColor=#36393d;fillColor=#f9f7ed;fontColor=#080808;" parent="RNgX-jbUkB-9QtbaT86_-1" source="bhvNu0Lqs81DkffSNlAM-1" target="bhvNu0Lqs81DkffSNlAM-7" edge="1">
                    <mxGeometry width="50" height="50" relative="1" as="geometry">
                        <mxPoint x="160" y="590" as="sourcePoint"/>
                        <mxPoint x="390" y="610" as="targetPoint"/>
                    </mxGeometry>
                </mxCell>
                <mxCell id="bhvNu0Lqs81DkffSNlAM-19" value="勤務店舗状況管理" style="ellipse;whiteSpace=wrap;html=1;strokeColor=#36393d;fillColor=#f9f7ed;fontColor=#080808;" parent="RNgX-jbUkB-9QtbaT86_-1" vertex="1">
                    <mxGeometry x="402" y="740" width="140" height="35" as="geometry"/>
                </mxCell>
                <mxCell id="bhvNu0Lqs81DkffSNlAM-20" value="" style="endArrow=classic;html=1;rounded=0;exitX=0.5;exitY=0.5;exitDx=0;exitDy=0;exitPerimeter=0;entryX=0;entryY=0.5;entryDx=0;entryDy=0;strokeColor=#36393d;fillColor=#f9f7ed;fontColor=#080808;" parent="RNgX-jbUkB-9QtbaT86_-1" source="bhvNu0Lqs81DkffSNlAM-4" target="bhvNu0Lqs81DkffSNlAM-12" edge="1">
                    <mxGeometry width="50" height="50" relative="1" as="geometry">
                        <mxPoint x="340" y="660" as="sourcePoint"/>
                        <mxPoint x="390" y="610" as="targetPoint"/>
                    </mxGeometry>
                </mxCell>
                <mxCell id="bhvNu0Lqs81DkffSNlAM-21" value="" style="endArrow=classic;html=1;rounded=0;exitX=0.5;exitY=0.5;exitDx=0;exitDy=0;exitPerimeter=0;entryX=0;entryY=0.5;entryDx=0;entryDy=0;strokeColor=#36393d;fillColor=#f9f7ed;fontColor=#080808;" parent="RNgX-jbUkB-9QtbaT86_-1" source="bhvNu0Lqs81DkffSNlAM-4" target="bhvNu0Lqs81DkffSNlAM-13" edge="1">
                    <mxGeometry width="50" height="50" relative="1" as="geometry">
                        <mxPoint x="100" y="540" as="sourcePoint"/>
                        <mxPoint x="150" y="490" as="targetPoint"/>
                    </mxGeometry>
                </mxCell>
                <mxCell id="bhvNu0Lqs81DkffSNlAM-22" value="" style="endArrow=classic;html=1;rounded=0;exitX=0.5;exitY=0.5;exitDx=0;exitDy=0;exitPerimeter=0;entryX=0;entryY=0.5;entryDx=0;entryDy=0;strokeColor=#36393d;fillColor=#f9f7ed;fontColor=#080808;" parent="RNgX-jbUkB-9QtbaT86_-1" source="bhvNu0Lqs81DkffSNlAM-4" target="bhvNu0Lqs81DkffSNlAM-14" edge="1">
                    <mxGeometry width="50" height="50" relative="1" as="geometry">
                        <mxPoint x="340" y="660" as="sourcePoint"/>
                        <mxPoint x="390" y="610" as="targetPoint"/>
                    </mxGeometry>
                </mxCell>
                <mxCell id="bhvNu0Lqs81DkffSNlAM-23" value="" style="rounded=1;whiteSpace=wrap;html=1;arcSize=8;strokeColor=#36393d;fillColor=#DEDCD3;fontColor=#080808;" parent="RNgX-jbUkB-9QtbaT86_-1" vertex="1">
                    <mxGeometry x="294" y="810" width="356" height="80" as="geometry"/>
                </mxCell>
                <mxCell id="bhvNu0Lqs81DkffSNlAM-24" value="情報検索" style="text;html=1;strokeColor=none;fillColor=none;align=center;verticalAlign=middle;whiteSpace=wrap;rounded=0;fontColor=#080808;" parent="RNgX-jbUkB-9QtbaT86_-1" vertex="1">
                    <mxGeometry x="300" y="820" width="56" height="20" as="geometry"/>
                </mxCell>
                <mxCell id="bhvNu0Lqs81DkffSNlAM-25" value="絞込検索機能" style="ellipse;whiteSpace=wrap;html=1;strokeColor=#36393d;fillColor=#f9f7ed;fontColor=#080808;" parent="RNgX-jbUkB-9QtbaT86_-1" vertex="1">
                    <mxGeometry x="400" y="842.5" width="140" height="35" as="geometry"/>
                </mxCell>
                <mxCell id="bhvNu0Lqs81DkffSNlAM-26" value="" style="endArrow=classic;html=1;rounded=0;exitX=0.5;exitY=0.5;exitDx=0;exitDy=0;exitPerimeter=0;entryX=1;entryY=0.5;entryDx=0;entryDy=0;strokeColor=#36393d;fillColor=#f9f7ed;fontColor=#080808;" parent="RNgX-jbUkB-9QtbaT86_-1" source="bhvNu0Lqs81DkffSNlAM-1" target="bhvNu0Lqs81DkffSNlAM-25" edge="1">
                    <mxGeometry width="50" height="50" relative="1" as="geometry">
                        <mxPoint x="340" y="650" as="sourcePoint"/>
                        <mxPoint x="390" y="600" as="targetPoint"/>
                    </mxGeometry>
                </mxCell>
                <mxCell id="bhvNu0Lqs81DkffSNlAM-27" value="" style="endArrow=classic;html=1;rounded=0;exitX=0.5;exitY=0.5;exitDx=0;exitDy=0;exitPerimeter=0;entryX=0;entryY=0.5;entryDx=0;entryDy=0;strokeColor=#36393d;fillColor=#f9f7ed;fontColor=#080808;" parent="RNgX-jbUkB-9QtbaT86_-1" source="bhvNu0Lqs81DkffSNlAM-6" target="bhvNu0Lqs81DkffSNlAM-25" edge="1">
                    <mxGeometry width="50" height="50" relative="1" as="geometry">
                        <mxPoint x="340" y="650" as="sourcePoint"/>
                        <mxPoint x="390" y="600" as="targetPoint"/>
                    </mxGeometry>
                </mxCell>
                <mxCell id="bhvNu0Lqs81DkffSNlAM-28" value="" style="endArrow=classic;html=1;rounded=0;entryX=0;entryY=0.5;entryDx=0;entryDy=0;strokeColor=#36393d;fillColor=#f9f7ed;fontColor=#080808;exitX=0.5;exitY=0.5;exitDx=0;exitDy=0;exitPerimeter=0;" parent="RNgX-jbUkB-9QtbaT86_-1" source="bhvNu0Lqs81DkffSNlAM-6" target="bhvNu0Lqs81DkffSNlAM-19" edge="1">
                    <mxGeometry width="50" height="50" relative="1" as="geometry">
                        <mxPoint x="190" y="720" as="sourcePoint"/>
                        <mxPoint x="390" y="600" as="targetPoint"/>
                    </mxGeometry>
                </mxCell>
                <mxCell id="bhvNu0Lqs81DkffSNlAM-29" value="" style="endArrow=classic;html=1;rounded=0;exitX=0.5;exitY=0.5;exitDx=0;exitDy=0;exitPerimeter=0;entryX=1;entryY=0.5;entryDx=0;entryDy=0;strokeColor=#36393d;fillColor=#f9f7ed;fontColor=#080808;" parent="RNgX-jbUkB-9QtbaT86_-1" source="bhvNu0Lqs81DkffSNlAM-1" target="bhvNu0Lqs81DkffSNlAM-12" edge="1">
                    <mxGeometry width="50" height="50" relative="1" as="geometry">
                        <mxPoint x="340" y="650" as="sourcePoint"/>
                        <mxPoint x="370" y="440" as="targetPoint"/>
                    </mxGeometry>
                </mxCell>
                <mxCell id="bhvNu0Lqs81DkffSNlAM-30" value="" style="endArrow=classic;html=1;rounded=0;entryX=1;entryY=0.5;entryDx=0;entryDy=0;exitX=0.5;exitY=0.5;exitDx=0;exitDy=0;exitPerimeter=0;strokeColor=#36393d;fillColor=#f9f7ed;fontColor=#080808;" parent="RNgX-jbUkB-9QtbaT86_-1" source="bhvNu0Lqs81DkffSNlAM-1" target="bhvNu0Lqs81DkffSNlAM-19" edge="1">
                    <mxGeometry width="50" height="50" relative="1" as="geometry">
                        <mxPoint x="150" y="590" as="sourcePoint"/>
                        <mxPoint x="390" y="600" as="targetPoint"/>
                    </mxGeometry>
                </mxCell>
                <mxCell id="bhvNu0Lqs81DkffSNlAM-31" value="人事情報管理" style="text;html=1;strokeColor=none;fillColor=none;align=center;verticalAlign=middle;whiteSpace=wrap;rounded=0;fontColor=#080808;" parent="RNgX-jbUkB-9QtbaT86_-1" vertex="1">
                    <mxGeometry x="297" y="360" width="80" height="20" as="geometry"/>
                </mxCell>
            </root>
        </mxGraphModel>
    </diagram>
    <diagram id="1RIJjTR2KE_wcN-HXxek" name="在庫管理_ユースケース図">
        <mxGraphModel dx="776" dy="419" grid="1" gridSize="10" guides="1" tooltips="1" connect="1" arrows="1" fold="1" page="1" pageScale="1" pageWidth="827" pageHeight="1169" math="0" shadow="0">
            <root>
                <mxCell id="0"/>
                <mxCell id="mOK6NjzvD6mZe8noQFNt-67" value="Untitled Layer" style="" parent="0"/>
                <mxCell id="mOK6NjzvD6mZe8noQFNt-68" value="" style="rounded=0;whiteSpace=wrap;html=1;strokeColor=#36393d;fillColor=#f9f7ed;fontColor=#080808;" parent="mOK6NjzvD6mZe8noQFNt-67" vertex="1">
                    <mxGeometry x="1150" y="103" width="400" height="610" as="geometry"/>
                </mxCell>
                <mxCell id="mOK6NjzvD6mZe8noQFNt-69" value="" style="rounded=1;whiteSpace=wrap;html=1;arcSize=4;strokeColor=#36393d;fillColor=#DEDCD3;fontColor=#080808;" parent="mOK6NjzvD6mZe8noQFNt-67" vertex="1">
                    <mxGeometry x="1172" y="136" width="356" height="87" as="geometry"/>
                </mxCell>
                <mxCell id="mOK6NjzvD6mZe8noQFNt-70" value="" style="rounded=1;whiteSpace=wrap;html=1;arcSize=8;strokeColor=#36393d;fillColor=#DEDCD3;fontColor=#080808;" parent="mOK6NjzvD6mZe8noQFNt-67" vertex="1">
                    <mxGeometry x="1172" y="226" width="356" height="55" as="geometry"/>
                </mxCell>
                <mxCell id="mOK6NjzvD6mZe8noQFNt-71" value="" style="rounded=1;whiteSpace=wrap;html=1;arcSize=4;strokeColor=#36393d;fillColor=#DEDCD3;fontColor=#080808;" parent="mOK6NjzvD6mZe8noQFNt-67" vertex="1">
                    <mxGeometry x="1172" y="283" width="356" height="88" as="geometry"/>
                </mxCell>
                <mxCell id="mOK6NjzvD6mZe8noQFNt-72" value="検索機能" style="text;html=1;strokeColor=none;fillColor=none;align=center;verticalAlign=middle;whiteSpace=wrap;rounded=0;fontColor=#080808;" parent="mOK6NjzvD6mZe8noQFNt-67" vertex="1">
                    <mxGeometry x="1167" y="283" width="360" height="20" as="geometry"/>
                </mxCell>
                <mxCell id="mOK6NjzvD6mZe8noQFNt-73" value="" style="rounded=1;whiteSpace=wrap;html=1;arcSize=8;strokeColor=#36393d;fillColor=#DEDCD3;fontColor=#080808;" parent="mOK6NjzvD6mZe8noQFNt-67" vertex="1">
                    <mxGeometry x="1173" y="373" width="356" height="55" as="geometry"/>
                </mxCell>
                <mxCell id="mOK6NjzvD6mZe8noQFNt-74" value="" style="rounded=1;whiteSpace=wrap;html=1;arcSize=8;strokeColor=#36393d;fillColor=#DEDCD3;fontColor=#080808;" parent="mOK6NjzvD6mZe8noQFNt-67" vertex="1">
                    <mxGeometry x="1173" y="432" width="356" height="55" as="geometry"/>
                </mxCell>
                <mxCell id="mOK6NjzvD6mZe8noQFNt-75" value="" style="rounded=1;whiteSpace=wrap;html=1;arcSize=4;strokeColor=#36393d;fillColor=#DEDCD3;fontColor=#080808;" parent="mOK6NjzvD6mZe8noQFNt-67" vertex="1">
                    <mxGeometry x="1173" y="490" width="356" height="50" as="geometry"/>
                </mxCell>
                <mxCell id="mOK6NjzvD6mZe8noQFNt-76" value="" style="rounded=1;whiteSpace=wrap;html=1;arcSize=8;strokeColor=#36393d;fillColor=#DEDCD3;fontColor=#080808;" parent="mOK6NjzvD6mZe8noQFNt-67" vertex="1">
                    <mxGeometry x="1173" y="543" width="356" height="55" as="geometry"/>
                </mxCell>
                <mxCell id="mOK6NjzvD6mZe8noQFNt-77" value="" style="rounded=1;whiteSpace=wrap;html=1;arcSize=4;strokeColor=#36393d;fillColor=#DEDCD3;fontColor=#080808;" parent="mOK6NjzvD6mZe8noQFNt-67" vertex="1">
                    <mxGeometry x="1173" y="600" width="356" height="50" as="geometry"/>
                </mxCell>
                <mxCell id="mOK6NjzvD6mZe8noQFNt-78" value="" style="rounded=1;whiteSpace=wrap;html=1;arcSize=8;strokeColor=#36393d;fillColor=#DEDCD3;fontColor=#080808;" parent="mOK6NjzvD6mZe8noQFNt-67" vertex="1">
                    <mxGeometry x="1173" y="653" width="356" height="47" as="geometry"/>
                </mxCell>
                <mxCell id="1" style="" parent="0"/>
                <mxCell id="VGDOHHYCb-uCLaKSD1Ca-94" value="" style="rounded=1;whiteSpace=wrap;html=1;" parent="1" vertex="1">
                    <mxGeometry x="790" y="275" width="130" height="249" as="geometry"/>
                </mxCell>
                <mxCell id="2" value="" style="rounded=0;whiteSpace=wrap;html=1;strokeColor=#36393d;fillColor=#f9f7ed;fontColor=#080808;" parent="1" vertex="1">
                    <mxGeometry x="378" y="191" width="400" height="370" as="geometry"/>
                </mxCell>
                <mxCell id="6" value="管理者" style="shape=umlActor;verticalLabelPosition=bottom;verticalAlign=top;html=1;outlineConnect=0;strokeColor=#36393d;fillColor=#f9f7ed;fontColor=#080808;" parent="1" vertex="1">
                    <mxGeometry x="280" y="373.5" width="40" height="70" as="geometry"/>
                </mxCell>
                <mxCell id="7" value="移動指示入力" style="ellipse;whiteSpace=wrap;html=1;strokeColor=#36393d;fillColor=#f9f7ed;fontColor=#080808;" parent="1" vertex="1">
                    <mxGeometry x="1177" y="156" width="170" height="27" as="geometry"/>
                </mxCell>
                <mxCell id="9" value="" style="rounded=1;whiteSpace=wrap;html=1;arcSize=4;strokeColor=#36393d;fillColor=#DEDCD3;fontColor=#080808;" parent="1" vertex="1">
                    <mxGeometry x="400" y="221" width="356" height="330" as="geometry"/>
                </mxCell>
                <mxCell id="10" value="在庫管理" style="text;html=1;strokeColor=none;fillColor=none;align=center;verticalAlign=middle;whiteSpace=wrap;rounded=0;fontColor=#080808;" parent="1" vertex="1">
                    <mxGeometry x="1150" y="113" width="80" height="20" as="geometry"/>
                </mxCell>
                <mxCell id="11" value="マスタ管理" style="text;html=1;strokeColor=none;fillColor=none;align=center;verticalAlign=middle;whiteSpace=wrap;rounded=0;fontColor=#080808;" parent="1" vertex="1">
                    <mxGeometry x="380" y="191" width="80" height="30" as="geometry"/>
                </mxCell>
                <mxCell id="12" value="在庫管理" style="text;html=1;strokeColor=none;fillColor=none;align=center;verticalAlign=middle;whiteSpace=wrap;rounded=0;fontColor=#080808;" parent="1" vertex="1">
                    <mxGeometry x="1166" y="136" width="360" height="20" as="geometry"/>
                </mxCell>
                <mxCell id="13" value="商品、JAN、製品のコードを登録" style="ellipse;whiteSpace=wrap;html=1;strokeColor=#36393d;fillColor=#f9f7ed;fontColor=#080808;" parent="1" vertex="1">
                    <mxGeometry x="471.5" y="251" width="219" height="35" as="geometry"/>
                </mxCell>
                <mxCell id="14" value="商品画像を登録" style="ellipse;whiteSpace=wrap;html=1;strokeColor=#36393d;fillColor=#f9f7ed;fontColor=#080808;" parent="1" vertex="1">
                    <mxGeometry x="482" y="296" width="200" height="35" as="geometry"/>
                </mxCell>
                <mxCell id="15" value="商品分類(カテゴリ)の登録" style="ellipse;whiteSpace=wrap;html=1;strokeColor=#36393d;fillColor=#f9f7ed;fontColor=#080808;" parent="1" vertex="1">
                    <mxGeometry x="479" y="338.5" width="200" height="35" as="geometry"/>
                </mxCell>
                <mxCell id="20" value="" style="endArrow=classic;html=1;rounded=0;exitX=0.5;exitY=0.5;exitDx=0;exitDy=0;exitPerimeter=0;entryX=0;entryY=0.5;entryDx=0;entryDy=0;strokeColor=#36393d;fillColor=#f9f7ed;fontColor=#080808;" parent="1" source="6" target="13" edge="1">
                    <mxGeometry width="50" height="50" relative="1" as="geometry">
                        <mxPoint x="450" y="661" as="sourcePoint"/>
                        <mxPoint x="500" y="611" as="targetPoint"/>
                    </mxGeometry>
                </mxCell>
                <mxCell id="21" value="" style="endArrow=classic;html=1;rounded=0;exitX=0.5;exitY=0.5;exitDx=0;exitDy=0;exitPerimeter=0;entryX=0;entryY=0.5;entryDx=0;entryDy=0;strokeColor=#36393d;fillColor=#f9f7ed;fontColor=#080808;" parent="1" source="6" target="14" edge="1">
                    <mxGeometry width="50" height="50" relative="1" as="geometry">
                        <mxPoint x="210" y="541" as="sourcePoint"/>
                        <mxPoint x="260" y="491" as="targetPoint"/>
                    </mxGeometry>
                </mxCell>
                <mxCell id="22" value="" style="endArrow=classic;html=1;rounded=0;exitX=0.5;exitY=0.5;exitDx=0;exitDy=0;exitPerimeter=0;entryX=0;entryY=0.5;entryDx=0;entryDy=0;strokeColor=#36393d;fillColor=#f9f7ed;fontColor=#080808;" parent="1" source="6" target="15" edge="1">
                    <mxGeometry width="50" height="50" relative="1" as="geometry">
                        <mxPoint x="450" y="661" as="sourcePoint"/>
                        <mxPoint x="500" y="611" as="targetPoint"/>
                    </mxGeometry>
                </mxCell>
                <mxCell id="24" value="セット品の在庫管理" style="text;html=1;strokeColor=none;fillColor=none;align=center;verticalAlign=middle;whiteSpace=wrap;rounded=0;fontColor=#080808;" parent="1" vertex="1">
                    <mxGeometry x="1166" y="226" width="360" height="20" as="geometry"/>
                </mxCell>
                <mxCell id="28" value="" style="endArrow=classic;html=1;rounded=0;strokeColor=#36393d;fillColor=#f9f7ed;fontColor=#080808;entryX=1;entryY=0.5;entryDx=0;entryDy=0;" parent="1" source="VGDOHHYCb-uCLaKSD1Ca-96" target="32" edge="1">
                    <mxGeometry width="50" height="50" relative="1" as="geometry">
                        <mxPoint x="800" y="434.5" as="sourcePoint"/>
                        <mxPoint x="380" y="437" as="targetPoint"/>
                    </mxGeometry>
                </mxCell>
                <mxCell id="30" value="人事情報管理" style="text;html=1;strokeColor=none;fillColor=none;align=center;verticalAlign=middle;whiteSpace=wrap;rounded=0;fontColor=#080808;" parent="1" vertex="1">
                    <mxGeometry x="402" y="231" width="348" height="20" as="geometry"/>
                </mxCell>
                <mxCell id="31" value="倉庫情報管理" style="ellipse;whiteSpace=wrap;html=1;strokeColor=#36393d;fillColor=#f9f7ed;fontColor=#080808;" parent="1" vertex="1">
                    <mxGeometry x="478" y="381" width="200" height="35" as="geometry"/>
                </mxCell>
                <mxCell id="32" value="ベンチマークマスタ管理" style="ellipse;whiteSpace=wrap;html=1;strokeColor=#36393d;fillColor=#f9f7ed;fontColor=#080808;" parent="1" vertex="1">
                    <mxGeometry x="484" y="421" width="200" height="35" as="geometry"/>
                </mxCell>
                <mxCell id="33" value="売上情報管理" style="ellipse;whiteSpace=wrap;html=1;strokeColor=#36393d;fillColor=#f9f7ed;fontColor=#080808;" parent="1" vertex="1">
                    <mxGeometry x="481" y="461" width="200" height="35" as="geometry"/>
                </mxCell>
                <mxCell id="34" value="販売履歴管理" style="ellipse;whiteSpace=wrap;html=1;strokeColor=#36393d;fillColor=#f9f7ed;fontColor=#080808;" parent="1" vertex="1">
                    <mxGeometry x="481" y="501" width="200" height="35" as="geometry"/>
                </mxCell>
                <mxCell id="35" value="倉庫別在庫管理" style="ellipse;whiteSpace=wrap;html=1;strokeColor=#36393d;fillColor=#f9f7ed;fontColor=#080808;" parent="1" vertex="1">
                    <mxGeometry x="1351" y="156" width="170" height="27" as="geometry"/>
                </mxCell>
                <mxCell id="36" value="商品情報管理" style="ellipse;whiteSpace=wrap;html=1;strokeColor=#36393d;fillColor=#f9f7ed;fontColor=#080808;" parent="1" vertex="1">
                    <mxGeometry x="1177" y="187" width="170" height="27" as="geometry"/>
                </mxCell>
                <mxCell id="37" value="セット商品管理機能" style="ellipse;whiteSpace=wrap;html=1;strokeColor=#36393d;fillColor=#f9f7ed;fontColor=#080808;" parent="1" vertex="1">
                    <mxGeometry x="1177" y="248" width="170" height="27" as="geometry"/>
                </mxCell>
                <mxCell id="40" value="商品情報検索機能" style="ellipse;whiteSpace=wrap;html=1;strokeColor=#36393d;fillColor=#f9f7ed;fontColor=#080808;" parent="1" vertex="1">
                    <mxGeometry x="1177" y="300" width="170" height="27" as="geometry"/>
                </mxCell>
                <mxCell id="41" value="在庫情報検索機能" style="ellipse;whiteSpace=wrap;html=1;strokeColor=#36393d;fillColor=#f9f7ed;fontColor=#080808;" parent="1" vertex="1">
                    <mxGeometry x="1352" y="301" width="170" height="27" as="geometry"/>
                </mxCell>
                <mxCell id="42" value="ボトルネック検索機能" style="ellipse;whiteSpace=wrap;html=1;strokeColor=#36393d;fillColor=#f9f7ed;fontColor=#080808;" parent="1" vertex="1">
                    <mxGeometry x="1179" y="331" width="170" height="27" as="geometry"/>
                </mxCell>
                <mxCell id="43" value="スペック検索機能" style="ellipse;whiteSpace=wrap;html=1;strokeColor=#36393d;fillColor=#f9f7ed;fontColor=#080808;" parent="1" vertex="1">
                    <mxGeometry x="1352" y="331" width="170" height="27" as="geometry"/>
                </mxCell>
                <mxCell id="45" value="取置予約管理" style="text;html=1;strokeColor=none;fillColor=none;align=center;verticalAlign=middle;whiteSpace=wrap;rounded=0;fontColor=#080808;" parent="1" vertex="1">
                    <mxGeometry x="1169" y="371" width="360" height="20" as="geometry"/>
                </mxCell>
                <mxCell id="46" value="取置予約機能" style="ellipse;whiteSpace=wrap;html=1;strokeColor=#36393d;fillColor=#f9f7ed;fontColor=#080808;" parent="1" vertex="1">
                    <mxGeometry x="1179" y="390" width="170" height="27" as="geometry"/>
                </mxCell>
                <mxCell id="48" value="粗利計算" style="text;html=1;strokeColor=none;fillColor=none;align=center;verticalAlign=middle;whiteSpace=wrap;rounded=0;fontColor=#080808;" parent="1" vertex="1">
                    <mxGeometry x="1168" y="429" width="360" height="20" as="geometry"/>
                </mxCell>
                <mxCell id="49" value="粗利計算機能" style="ellipse;whiteSpace=wrap;html=1;strokeColor=#36393d;fillColor=#f9f7ed;fontColor=#080808;" parent="1" vertex="1">
                    <mxGeometry x="1179" y="453.5" width="170" height="27" as="geometry"/>
                </mxCell>
                <mxCell id="51" value="セット販売見積機能" style="ellipse;whiteSpace=wrap;html=1;strokeColor=#36393d;fillColor=#f9f7ed;fontColor=#080808;" parent="1" vertex="1">
                    <mxGeometry x="1179" y="507" width="170" height="27" as="geometry"/>
                </mxCell>
                <mxCell id="52" value="見積" style="text;html=1;strokeColor=none;fillColor=none;align=center;verticalAlign=middle;whiteSpace=wrap;rounded=0;fontColor=#080808;" parent="1" vertex="1">
                    <mxGeometry x="1170" y="490" width="360" height="20" as="geometry"/>
                </mxCell>
                <mxCell id="53" value="販売価格見積機能" style="ellipse;whiteSpace=wrap;html=1;strokeColor=#36393d;fillColor=#f9f7ed;fontColor=#080808;" parent="1" vertex="1">
                    <mxGeometry x="1353" y="507" width="170" height="27" as="geometry"/>
                </mxCell>
                <mxCell id="55" value="&lt;span&gt;倉庫在庫管理&lt;/span&gt;" style="text;html=1;strokeColor=none;fillColor=none;align=center;verticalAlign=middle;whiteSpace=wrap;rounded=0;fontColor=#080808;" parent="1" vertex="1">
                    <mxGeometry x="1168" y="540" width="360" height="20" as="geometry"/>
                </mxCell>
                <mxCell id="56" value="倉庫在庫管理情報" style="ellipse;whiteSpace=wrap;html=1;strokeColor=#36393d;fillColor=#f9f7ed;fontColor=#080808;" parent="1" vertex="1">
                    <mxGeometry x="1179" y="561" width="170" height="27" as="geometry"/>
                </mxCell>
                <mxCell id="58" value="売上情報参照" style="ellipse;whiteSpace=wrap;html=1;strokeColor=#36393d;fillColor=#f9f7ed;fontColor=#080808;" parent="1" vertex="1">
                    <mxGeometry x="1179" y="617" width="170" height="27" as="geometry"/>
                </mxCell>
                <mxCell id="59" value="売上" style="text;html=1;strokeColor=none;fillColor=none;align=center;verticalAlign=middle;whiteSpace=wrap;rounded=0;fontColor=#080808;" parent="1" vertex="1">
                    <mxGeometry x="1170" y="600" width="360" height="20" as="geometry"/>
                </mxCell>
                <mxCell id="60" value="売上情報登録" style="ellipse;whiteSpace=wrap;html=1;strokeColor=#36393d;fillColor=#f9f7ed;fontColor=#080808;" parent="1" vertex="1">
                    <mxGeometry x="1353" y="620" width="170" height="26" as="geometry"/>
                </mxCell>
                <mxCell id="62" value="販売履歴" style="text;html=1;strokeColor=none;fillColor=none;align=center;verticalAlign=middle;whiteSpace=wrap;rounded=0;fontColor=#080808;" parent="1" vertex="1">
                    <mxGeometry x="1168" y="650" width="360" height="20" as="geometry"/>
                </mxCell>
                <mxCell id="63" value="販売履歴検索" style="ellipse;whiteSpace=wrap;html=1;strokeColor=#36393d;fillColor=#f9f7ed;fontColor=#080808;" parent="1" vertex="1">
                    <mxGeometry x="1179" y="666" width="170" height="27" as="geometry"/>
                </mxCell>
                <mxCell id="64" value="" style="endArrow=classic;html=1;rounded=0;exitX=0.5;exitY=0.5;exitDx=0;exitDy=0;exitPerimeter=0;entryX=0;entryY=0.5;entryDx=0;entryDy=0;" parent="1" source="6" target="31" edge="1">
                    <mxGeometry width="50" height="50" relative="1" as="geometry">
                        <mxPoint x="320" y="501" as="sourcePoint"/>
                        <mxPoint x="370" y="451" as="targetPoint"/>
                    </mxGeometry>
                </mxCell>
                <mxCell id="65" value="" style="endArrow=classic;html=1;rounded=0;exitX=0.5;exitY=0.5;exitDx=0;exitDy=0;exitPerimeter=0;entryX=0;entryY=0.5;entryDx=0;entryDy=0;" parent="1" source="6" target="32" edge="1">
                    <mxGeometry width="50" height="50" relative="1" as="geometry">
                        <mxPoint x="310" y="418.5" as="sourcePoint"/>
                        <mxPoint x="488.00000000000034" y="408.5" as="targetPoint"/>
                    </mxGeometry>
                </mxCell>
                <mxCell id="66" value="" style="endArrow=classic;html=1;rounded=0;exitX=0.5;exitY=0.5;exitDx=0;exitDy=0;exitPerimeter=0;entryX=0;entryY=0.5;entryDx=0;entryDy=0;" parent="1" source="6" target="33" edge="1">
                    <mxGeometry width="50" height="50" relative="1" as="geometry">
                        <mxPoint x="320" y="428.5" as="sourcePoint"/>
                        <mxPoint x="498.00000000000034" y="418.5" as="targetPoint"/>
                    </mxGeometry>
                </mxCell>
                <mxCell id="67" value="" style="endArrow=classic;html=1;rounded=0;exitX=0.5;exitY=0.5;exitDx=0;exitDy=0;exitPerimeter=0;entryX=0;entryY=0.5;entryDx=0;entryDy=0;" parent="1" source="6" target="34" edge="1">
                    <mxGeometry width="50" height="50" relative="1" as="geometry">
                        <mxPoint x="330" y="438.5" as="sourcePoint"/>
                        <mxPoint x="508.00000000000034" y="428.5" as="targetPoint"/>
                    </mxGeometry>
                </mxCell>
                <mxCell id="26" value="" style="endArrow=classic;html=1;rounded=0;exitX=1;exitY=0.5;exitDx=0;exitDy=0;entryX=0;entryY=0.5;entryDx=0;entryDy=0;strokeColor=#36393d;fillColor=#f9f7ed;fontColor=#080808;startArrow=none;" parent="1" source="VGDOHHYCb-uCLaKSD1Ca-94" target="mOK6NjzvD6mZe8noQFNt-70" edge="1">
                    <mxGeometry width="50" height="50" relative="1" as="geometry">
                        <mxPoint x="925" y="254" as="sourcePoint"/>
                        <mxPoint x="1070" y="172.5" as="targetPoint"/>
                    </mxGeometry>
                </mxCell>
                <mxCell id="VGDOHHYCb-uCLaKSD1Ca-91" value="" style="endArrow=classic;html=1;rounded=0;exitX=1;exitY=0.5;exitDx=0;exitDy=0;strokeColor=#36393d;fillColor=#f9f7ed;fontColor=#080808;entryX=0;entryY=0.5;entryDx=0;entryDy=0;" parent="1" source="VGDOHHYCb-uCLaKSD1Ca-94" target="mOK6NjzvD6mZe8noQFNt-69" edge="1">
                    <mxGeometry width="50" height="50" relative="1" as="geometry">
                        <mxPoint x="950" y="281.25" as="sourcePoint"/>
                        <mxPoint x="1070" y="77" as="targetPoint"/>
                    </mxGeometry>
                </mxCell>
                <mxCell id="VGDOHHYCb-uCLaKSD1Ca-96" value="正規社員" style="shape=umlActor;verticalLabelPosition=bottom;verticalAlign=top;html=1;outlineConnect=0;strokeColor=#36393d;fillColor=#f9f7ed;fontColor=#080808;" parent="1" vertex="1">
                    <mxGeometry x="830" y="402.5" width="40" height="70" as="geometry"/>
                </mxCell>
                <mxCell id="nKxn7mJy5K4W1X4Z80WW-80" value="非正規社員" style="shape=umlActor;verticalLabelPosition=bottom;verticalAlign=top;html=1;outlineConnect=0;strokeColor=#36393d;fillColor=#f9f7ed;fontColor=#080808;" parent="1" vertex="1">
                    <mxGeometry x="830" y="283" width="40" height="70" as="geometry"/>
                </mxCell>
                <mxCell id="nKxn7mJy5K4W1X4Z80WW-82" value="" style="endArrow=classic;html=1;rounded=0;exitX=1;exitY=0.5;exitDx=0;exitDy=0;entryX=0;entryY=0.5;entryDx=0;entryDy=0;strokeColor=#36393d;fillColor=#f9f7ed;fontColor=#080808;startArrow=none;" parent="1" source="VGDOHHYCb-uCLaKSD1Ca-94" target="mOK6NjzvD6mZe8noQFNt-71" edge="1">
                    <mxGeometry width="50" height="50" relative="1" as="geometry">
                        <mxPoint x="960" y="294.5" as="sourcePoint"/>
                        <mxPoint x="1070" y="276" as="targetPoint"/>
                    </mxGeometry>
                </mxCell>
                <mxCell id="nKxn7mJy5K4W1X4Z80WW-83" value="" style="endArrow=classic;html=1;rounded=0;exitX=1;exitY=0.5;exitDx=0;exitDy=0;entryX=0;entryY=0.5;entryDx=0;entryDy=0;strokeColor=#36393d;fillColor=#f9f7ed;fontColor=#080808;startArrow=none;" parent="1" source="VGDOHHYCb-uCLaKSD1Ca-94" target="mOK6NjzvD6mZe8noQFNt-73" edge="1">
                    <mxGeometry width="50" height="50" relative="1" as="geometry">
                        <mxPoint x="960" y="294.5" as="sourcePoint"/>
                        <mxPoint x="1070" y="380.5" as="targetPoint"/>
                    </mxGeometry>
                </mxCell>
                <mxCell id="nKxn7mJy5K4W1X4Z80WW-84" value="" style="endArrow=classic;html=1;rounded=0;exitX=1;exitY=0.5;exitDx=0;exitDy=0;entryX=0;entryY=0.5;entryDx=0;entryDy=0;strokeColor=#36393d;fillColor=#f9f7ed;fontColor=#080808;startArrow=none;" parent="1" source="VGDOHHYCb-uCLaKSD1Ca-94" target="mOK6NjzvD6mZe8noQFNt-74" edge="1">
                    <mxGeometry width="50" height="50" relative="1" as="geometry">
                        <mxPoint x="960" y="294.5" as="sourcePoint"/>
                        <mxPoint x="1070" y="439.5" as="targetPoint"/>
                    </mxGeometry>
                </mxCell>
                <mxCell id="nKxn7mJy5K4W1X4Z80WW-85" value="" style="endArrow=classic;html=1;rounded=0;exitX=1;exitY=0.5;exitDx=0;exitDy=0;entryX=0;entryY=0.5;entryDx=0;entryDy=0;strokeColor=#36393d;fillColor=#f9f7ed;fontColor=#080808;startArrow=none;" parent="1" source="VGDOHHYCb-uCLaKSD1Ca-94" target="mOK6NjzvD6mZe8noQFNt-75" edge="1">
                    <mxGeometry width="50" height="50" relative="1" as="geometry">
                        <mxPoint x="960" y="294.5" as="sourcePoint"/>
                        <mxPoint x="1070" y="510" as="targetPoint"/>
                    </mxGeometry>
                </mxCell>
                <mxCell id="nKxn7mJy5K4W1X4Z80WW-86" value="" style="endArrow=classic;html=1;rounded=0;exitX=1;exitY=0.5;exitDx=0;exitDy=0;entryX=0;entryY=0.5;entryDx=0;entryDy=0;strokeColor=#36393d;fillColor=#f9f7ed;fontColor=#080808;startArrow=none;" parent="1" source="VGDOHHYCb-uCLaKSD1Ca-94" target="mOK6NjzvD6mZe8noQFNt-76" edge="1">
                    <mxGeometry width="50" height="50" relative="1" as="geometry">
                        <mxPoint x="960" y="294.5" as="sourcePoint"/>
                        <mxPoint x="1070" y="580.5" as="targetPoint"/>
                    </mxGeometry>
                </mxCell>
                <mxCell id="nKxn7mJy5K4W1X4Z80WW-88" value="" style="endArrow=classic;html=1;rounded=0;entryX=0;entryY=0.5;entryDx=0;entryDy=0;strokeColor=#36393d;fillColor=#f9f7ed;fontColor=#080808;startArrow=none;exitX=1;exitY=0.5;exitDx=0;exitDy=0;" parent="1" source="VGDOHHYCb-uCLaKSD1Ca-94" target="mOK6NjzvD6mZe8noQFNt-78" edge="1">
                    <mxGeometry width="50" height="50" relative="1" as="geometry">
                        <mxPoint x="950" y="290" as="sourcePoint"/>
                        <mxPoint x="1070" y="720.5" as="targetPoint"/>
                    </mxGeometry>
                </mxCell>
            </root>
        </mxGraphModel>
    </diagram>
</mxfile>